<svg width="20" height="20" viewBox="0 0 20 20" fill="none" xmlns="http://www.w3.org/2000/svg">
<path d="M15.3032 12.9463L14.1247 11.7678L15.3032 10.5893C16.9304 8.96209 16.9304 6.32389 15.3032 4.69671C13.6761 3.06952 11.0378 3.06952 9.41066 4.69671L8.23216 5.87522L7.05365 4.69671L8.23216 3.51819C10.5102 1.24013 14.2037 1.24013 16.4817 3.51819C18.7598 5.79625 18.7598 9.48967 16.4817 11.7678L15.3032 12.9463ZM12.9462 15.3033L11.7677 16.4818C9.48966 18.7598 5.79617 18.7598 3.51811 16.4818C1.24006 14.2038 1.24006 10.5103 3.51811 8.23224L4.69662 7.05372L5.87514 8.23224L4.69662 9.41076C3.06944 11.0379 3.06944 13.6761 4.69662 15.3033C6.32381 16.9305 8.962 16.9305 10.5892 15.3033L11.7677 14.1248L12.9462 15.3033ZM12.3569 6.46447L13.5355 7.64298L7.64291 13.5355L6.46439 12.357L12.3569 6.46447Z" fill="#F5F5F5"/>
</svg>
