<svg width="29" height="44" viewBox="0 0 29 44" fill="none" xmlns="http://www.w3.org/2000/svg">
<path opacity="0.2" d="M28.5111 4.14706C25.3455 4.14706 25.3455 4.14706 28.5111 4.14706C25.3455 4.70194 24.8924 5.15174 24.3334 8.29412C24.3334 5.15174 24.3334 5.15174 24.3334 8.29412C23.7744 5.15174 23.3213 4.70194 20.1555 4.14706C23.3213 4.14706 23.3213 4.14706 20.1555 4.14706C23.3213 3.59218 23.7744 3.14238 24.3334 0C24.3334 3.14238 24.3334 3.14238 24.3334 0C24.8924 3.14238 25.3455 3.59218 28.5111 4.14706Z" fill="#F5F5F5"/>
<path opacity="0.2" d="M28.5111 20.2941C19.351 20.2941 19.351 20.2941 28.5111 20.2941C19.351 21.8997 18.0398 23.2013 16.4224 32.2941C16.4224 23.2013 16.4224 23.2013 16.4224 32.2941C14.8049 23.2013 13.4937 21.8997 4.33334 20.2941C13.4937 20.2941 13.4937 20.2941 4.33334 20.2941C13.4937 18.6885 14.8049 17.387 16.4224 8.29413C16.4224 17.387 16.4224 17.387 16.4224 8.29413C18.0398 17.387 19.351 18.6885 28.5111 20.2941Z" fill="#F5F5F5"/>
<path opacity="0.2" d="M28.5111 37.9118C24.2229 37.9118 24.2229 37.9118 28.5111 37.9118C24.2229 38.6634 23.6091 39.2727 22.8519 43.5294C22.8519 39.2727 22.8519 39.2727 22.8519 43.5294C22.0947 39.2727 21.4809 38.6634 17.1926 37.9118C21.4809 37.9118 21.4809 37.9118 17.1926 37.9118C21.4809 37.1601 22.0947 36.5508 22.8519 32.2941C22.8519 36.5508 22.8519 36.5508 22.8519 32.2941C23.6091 36.5508 24.2229 37.1601 28.5111 37.9118Z" fill="#F5F5F5"/>
</svg>
