<svg width="81" height="80" viewBox="0 0 81 80" fill="none" xmlns="http://www.w3.org/2000/svg">
<g clip-path="url(#clip0_520_1906)">
<path d="M33.8333 53.3333H47.1666C49 53.3333 50.5 51.8333 50.5 49.9999V33.3333H55.8C58.7666 33.3333 60.2666 29.7333 58.1666 27.6333L42.8666 12.3333C41.5666 11.0333 39.4666 11.0333 38.1666 12.3333L22.8666 27.6333C20.7666 29.7333 22.2333 33.3333 25.2 33.3333H30.5V49.9999C30.5 51.8333 32 53.3333 33.8333 53.3333ZM20.5 59.9999H60.5C62.3333 59.9999 63.8333 61.4999 63.8333 63.3333C63.8333 65.1666 62.3333 66.6666 60.5 66.6666H20.5C18.6666 66.6666 17.1666 65.1666 17.1666 63.3333C17.1666 61.4999 18.6666 59.9999 20.5 59.9999Z" fill="white"/>
</g>
<defs>
<clipPath id="clip0_520_1906">
<rect width="80" height="80" fill="white" transform="translate(0.5)"/>
</clipPath>
</defs>
</svg>
