<svg width="16" height="20" viewBox="0 0 16 20" fill="none" xmlns="http://www.w3.org/2000/svg">
<path d="M5.41212 17L4.05909 14.8159L1.49545 14.2698L1.7447 11.7444L0 9.83333L1.7447 7.92222L1.49545 5.39682L4.05909 4.85079L5.41212 2.66667L7.83333 3.65635L10.2545 2.66667L11.6076 4.85079L14.1712 5.39682L13.922 7.92222L15.6667 9.83333L13.922 11.7444L14.1712 14.2698L11.6076 14.8159L10.2545 17L7.83333 16.0103L5.41212 17ZM6.01742 15.2595L7.83333 14.5087L9.68485 15.2595L10.6818 13.6214L12.6402 13.1778L12.4621 11.2667L13.7795 9.83333L12.4621 8.36587L12.6402 6.45476L10.6818 6.04524L9.64924 4.40714L7.83333 5.15794L5.98182 4.40714L4.98485 6.04524L3.02652 6.45476L3.20455 8.36587L1.88712 9.83333L3.20455 11.2667L3.02652 13.2119L4.98485 13.6214L6.01742 15.2595ZM7.08561 12.2563L11.1091 8.4L10.1121 7.41032L7.08561 10.3111L5.55455 8.87778L4.55758 9.83333L7.08561 12.2563Z" fill="#00AEAE"/>
</svg>
